<?xml version="1.0" encoding="utf-8"?>
<!-- Generator: Adobe Illustrator 25.2.0, SVG Export Plug-In . SVG Version: 6.00 Build 0)  -->
<svg version="1.1" xmlns="http://www.w3.org/2000/svg" xmlns:xlink="http://www.w3.org/1999/xlink" x="0px" y="0px"
	 viewBox="0 0 2364.2 2361.6" style="enable-background:new 0 0 2364.2 2361.6;" xml:space="preserve">
<style type="text/css">
	.st0{fill:##1b212c;}
	.st1{fill:#FFF200;}
</style>
<g id="Layer_2">
	<ellipse class="st0" cx="1182.7" cy="1180.8" rx="1181.5" ry="1180.8"/>
</g>
<g id="Layer_1">
	<desc>Created with Snap</desc>
	<g transform="matrix(26.2692,0,0,26.2692,-2781.269,-1712.0181)">
		<g>
			<path class="st1" d="M173.5,123.3c-4.4,3.8-7.9,12.1-7.9,12.1s-5.5-9.1-10.3-12.2c-7.6-4.9-10.8-4.9-10.8-4.9v3.8
				c0,0,6.2,1,9.3,3.7c6.5,5.7,11.8,14.7,11.8,14.7s4.7-10.4,9.2-14c6.4-4.9,11.9-4.4,11.9-4.4v-3.8
				C186.7,118.2,178.9,118.7,173.5,123.3z"/>
			<path class="st1" d="M144.5,134.1c-5.1-2.9-14.2-3.4-14.2-3.4s6.9-8,8.4-13.5c2.2-8.6,1.2-11.7,1.2-11.7l-3.7,1.3
				c0,0,1,6.1-0.5,9.9c-3.3,7.9-10.4,15.8-10.4,15.8s11.6,1,16.5,4.1c6.9,4.3,8.1,9.6,8.1,9.6l3.7-1.3
				C153.7,144.7,150.7,137.6,144.5,134.1z"/>
			<path class="st1" d="M139.2,99.7c9-0.7,11.6-2.7,11.6-2.7l-2.4-3c0,0-5.5,2.9-9.6,2.7c-8.7-0.5-18.6-4.5-18.6-4.5
				s2.8,11.1,1.4,16.6c-1.9,7.9-6.6,10.8-6.6,10.8l2.4,3c0,0,6-5.2,7.2-12c1-5.7-1.4-14.3-1.4-14.3S133.4,100.1,139.2,99.7z"/>
			<path class="st1" d="M140.9,84.5c5.8-0.9,13.3-5.9,13.3-5.9s-0.5,10.5,1.9,15.8c3.7,8.1,6.4,10,6.4,10l2.2-3.2
				c0,0-4.7-4.1-5.8-8.1c-2.4-8.2-1.8-18.7-1.8-18.7s-9.8,6.2-15.5,6.8c-8.1,0.8-12.4-2.6-12.4-2.6l-2.2,3.3
				C126.9,81.7,133.9,85.6,140.9,84.5z"/>
			<path class="st1" d="M162.8,118.5c0,0,2.5-5.7,5.9-8c7.2-4.9,17.4-7.7,17.4-7.7s-9.2-7.1-11.6-12.3c-3.3-7.2-1.5-12.4-1.5-12.4
				l-3.8-1c0,0-1.5,7.6,1.8,13.9c2.7,5.1,10,10.5,10,10.5s-10.2,3-14.5,6.9c-6.6,6.1-7.5,9.2-7.5,9.2L162.8,118.5z"/>
		</g>
		<desc>Created with Snap</desc>
	</g>
</g>
</svg>
